<?xml version="1.0" encoding="UTF-8"?>
<!DOCTYPE svg PUBLIC "-//W3C//DTD SVG 1.1//EN" "http://www.w3.org/Graphics/SVG/1.1/DTD/svg11.dtd">
<svg xmlns="http://www.w3.org/2000/svg" version="1.1" width="512px" height="512px"
    style="shape-rendering:geometricPrecision; text-rendering:geometricPrecision; image-rendering:optimizeQuality; fill-rule:evenodd; clip-rule:evenodd"
    xmlns:xlink="http://www.w3.org/1999/xlink">
    <g>
        <path style="opacity:1" fill="#000" d="M 250.5,7.5 
            C 287.705,6.18449 315.205,21.8512 333,54.5
            C 348.466,85.1945 351.966,117.194 343.5,150.5
            C 343.833,151.167 344.167,151.833 344.5,152.5
            C 364.342,158.851 370.842,171.851 364,191.5
            C 360.726,196.774 356.226,200.608 350.5,203
            C 377.865,221.561 407.199,225.561 438.5,215
            C 470.71,200.119 487.877,174.952 490,139.5
            C 478.942,131.59 476.609,121.59 483,109.5
            C 494.319,97.5033 505.653,97.5033 517,109.5
            C 523.045,122.398 520.212,132.898 508.5,141
            C 505.795,182.381 485.795,212.381 448.5,231
            C 414.402,244.307 381.402,241.973 349.5,224
            C 346.364,222.959 343.864,223.793 342,226.5
            C 345.564,270.642 343.231,314.642 335,358.5
            C 331.541,375.753 327.708,392.92 323.5,410
            C 324.881,413.063 326.714,415.896 329,418.5
            C 332.97,434.89 326.636,444.557 310,447.5
            C 297.825,445.992 290.992,439.158 289.5,427
            C 290.453,417.039 295.619,410.206 305,406.5
            C 317.244,360.795 324.077,314.295 325.5,267
            C 325.078,257.829 324.578,248.662 324,239.5
            C 320.622,224.727 312.122,220.561 298.5,227
            C 294.686,229.481 292.519,232.981 292,237.5
            C 291.167,280.171 291.333,322.837 292.5,365.5
            C 302.541,372.185 305.374,381.185 301,392.5
            C 293.61,403.779 283.777,406.612 271.5,401
            C 257.903,388.663 258.236,376.829 272.5,365.5
            C 273.667,324.837 273.833,284.171 273,243.5
            C 268.625,233.296 261.458,230.796 251.5,236
            C 249.959,237.579 248.792,239.413 248,241.5
            C 247.333,282.833 247.333,324.167 248,365.5
            C 259.831,374.807 261.331,385.474 252.5,397.5
            C 241.537,406.824 231.037,406.157 221,395.5
            C 214.464,383.743 216.631,373.743 227.5,365.5
            C 228.667,321.837 228.833,278.17 228,234.5
            C 224.853,224.993 218.353,221.493 208.5,224
            C 200.777,227.599 197.277,233.765 198,242.5
            C 195.85,297.816 202.183,352.15 217,405.5
            C 226.884,409.907 232.384,417.574 233.5,428.5
            C 229.412,443.545 219.746,449.378 204.5,446
            C 192.897,439.528 189.397,430.028 194,417.5
            C 195.458,415.04 197.291,412.873 199.5,411
            C 182.378,350.278 175.711,288.445 179.5,225.5
            C 177.473,223.661 175.14,223.161 172.5,224
            C 135.94,244.262 99.2738,244.596 62.5,225
            C 31.7023,204.92 15.2023,176.42 13,139.5
            C 0.53182,130.77 -1.46818,120.103 7,107.5
            C 17.9114,97.943 28.5781,98.2763 39,108.5
            C 45.9637,121.564 43.4637,132.397 31.5,141
            C 38.4011,190.904 66.9011,217.737 117,221.5
            C 137.044,220.387 155.211,214.054 171.5,202.5
            C 157.755,193.095 154.255,180.761 161,165.5
            C 165.5,158.163 172,153.663 180.5,152
            C 170.062,113.399 175.562,77.2318 197,43.5
            C 210.471,24.8594 228.305,12.8594 250.5,7.5 Z 
            M 284.5,28.5 
            C 290.191,28.548 291.857,31.2147 289.5,36.5
            C 284.681,38.1697 282.181,36.503 282,31.5
            C 283.045,30.6266 283.878,29.6266 284.5,28.5 Z 
            M 298.5,38.5 
            C 305.603,37.2018 309.603,40.0351 310.5,47
            C 310.333,52.5 307.5,55.3333 302,55.5
            C 294.875,54.602 292.208,50.602 294,43.5
            C 295.025,41.313 296.525,39.6464 298.5,38.5 Z 
            M 282.5,47.5 
            C 286.714,50.7545 286.048,52.4211 280.5,52.5
            C 280.365,50.4458 281.032,48.7791 282.5,47.5 Z 
            M 498.5,115.5 
            C 503.757,115.688 505.924,118.355 505,123.5
            C 502.833,126.287 499.999,127.12 496.5,126
            C 493.402,121.658 494.069,118.158 498.5,115.5 Z 
            M 19.5,116.5 
            C 24.4292,115.305 27.4292,117.138 28.5,122
            C 25.9424,126.842 22.4424,127.676 18,124.5
            C 17.1093,121.502 17.6093,118.836 19.5,116.5 Z 
            M 180.5,171.5 
            C 190.067,171.406 193.067,175.406 189.5,183.5
            C 184.586,187.585 180.419,186.919 177,181.5
            C 176.182,177.469 177.349,174.136 180.5,171.5 Z 
            M 337.5,171.5 
            C 345.879,170.993 349.046,174.66 347,182.5
            C 342.23,187.798 337.896,187.465 334,181.5
            C 332.755,177.235 333.922,173.902 337.5,171.5 Z 
            M 282.5,377.5 
            C 290.382,381.495 290.382,385.161 282.5,388.5
            C 277.849,387.807 276.349,385.141 278,380.5
            C 279.409,379.219 280.909,378.219 282.5,377.5 Z 
            M 234.5,378.5 
            C 239.095,377.64 242.095,379.307 243.5,383.5
            C 243.028,386.97 241.028,388.637 237.5,388.5
            C 232.849,387.807 231.349,385.141 233,380.5
            C 233.717,379.956 234.217,379.289 234.5,378.5 Z 
            M 210.5,421.5 
            C 217.03,421.243 219.197,424.243 217,430.5
            C 212.287,433.797 208.787,432.797 206.5,427.5
            C 206.937,424.775 208.27,422.775 210.5,421.5 Z 
            M 308.5,421.5 
            C 314.157,421.324 316.324,423.991 315,429.5
            C 311.714,433.485 308.381,433.485 305,429.5
            C 304.279,425.946 305.446,423.28 308.5,421.5 Z" />
    </g>
</svg>